Plot: When an unseen enemy threatens mankind by taking over their bodies and erasing their memories, Melanie will risk everything to protect the people she cares most about, proving that love can conquer all in a dangerous new world.



Director:
Andrew Niccol

Writers:
Stephenie Meyer (novel), Andrew Niccol (screenplay)

Stars:
Saoirse Ronan, Max Irons, Jake Abel

Genres:
Action |  Adventure |  Romance |  Sci-Fi |  Thriller

Country:
USA

Language:
English


Format                                   : MPEG-4
Format profile                           : Base Media / Version 2
Codec ID                                 : mp42
File size                                : 3.04 GiB
Duration                                 : 2h 10mn
Overall bit rate mode                    : Variable
Overall bit rate                         : 3 331 Kbps
Encoded date                             : UTC 2013-04-17 06:46:17
Tagged date                              : UTC 2013-04-17 06:46:17

Video
ID                                       : 201
Format                                   : AVC
Format/Info                              : Advanced Video Codec
Format profile                           : High@L4.1
Format settings, CABAC                   : Yes
Format settings, ReFrames                : 2 frames
Format settings, GOP                     : M=1, N=15
Codec ID                                 : avc1
Codec ID/Info                            : Advanced Video Coding
Duration                                 : 2h 10mn
Bit rate                                 : 3 000 Kbps
Width                                    : 1 280 pixels
Height                                   : 720 pixels
Display aspect ratio                     : 16:9
Frame rate mode                          : Constant
Frame rate                               : 29.970 fps
Color space                              : YUV
Chroma subsampling                       : 4:2:0
Bit depth                                : 8 bits
Scan type                                : Progressive
Bits/(Pixel*Frame)                       : 0.109
Stream size                              : 2.79 GiB (92%)
Writing library                          : x264 core 120
Encoding settings                        : cabac=1 / ref=2 / deblock=1:0:0 / analyse=0x3:0x113 / me=hex / subme=6 / psy=1 / psy_rd=1.0:0.0 / mixed_ref=1 / me_range=16 / chroma_me=1 / trellis=0 / 8x8dct=1 / cqm=0 / deadzone=21,11 / fast_pskip=0 / chroma_qp_offset=-2 / threads=8 / sliced_threads=0 / nr=0 / decimate=1 / mbaff=0 / constrained_intra=0 / bframes=2 / b_pyramid=0 / b_adapt=2 / b_bias=0 / direct=3 / wpredb=0 / wpredp=2 / keyint=15 / keyint_min=8 / scenecut=0 / intra_refresh=0 / rc_lookahead=15 / rc=abr / mbtree=1 / bitrate=3000 / ratetol=1.0 / qcomp=0.60 / qpmin=0 / qpmax=10 / qpstep=4 / ip_ratio=1.41 / aq=1:1.00
Tagged date                              : UTC 2013-04-17 06:48:20

Audio
ID                                       : 101
Format                                   : AAC
Format/Info                              : Advanced Audio Codec
Format profile                           : LC
Codec ID                                 : 40
Duration                                 : 2h 10mn
Bit rate mode                            : Variable
Bit rate                                 : 128 Kbps
Channel(s)                               : 2 channels
Channel positions                        : Front: L R
Sampling rate                            : 48.0 KHz
Compression mode                         : Lossy
Stream size                              : 120 MiB (4%)
Tagged date                              : UTC 2013-04-17 06:48:20

Screens: 
http://i.imgur.com/wDJDYS2.png 
http://i.imgur.com/eR53b5z.png 
http://i.imgur.com/7sQKtJW.png 
http://i.imgur.com/2zCVzNn.png